#!OML:ASF F:\VICON\USERDATA\INSTALL\rory3\rory3.ASF
:FULLY-SPECIFIED
:DEGREES
64
root -0.753754 17.8321 3.79119 7.6854 -2.16483 -8.69181
lowerback 16.4469 0.45501 9.21539
upperback 0.478999 2.48024 1.65247
thorax -8.4283 0.855215 -4.00129
lowerneck -5.06583 0.777158 0.452213
upperneck -7.81702 0.853218 -3.33537
head -1.56209 0.462737 -1.11347
rclavicle 3.98066e-014 -6.70898e-015
rhumerus -16.7911 15.9061 -77.0206
rradius 111.074
rwrist -10.1452
rhand -36.755 33.6042
rfingers 7.12502
rthumb -9.83832 3.85409
lclavicle 3.98066e-014 -6.70898e-015
lhumerus -58.557 -12.1196 94.6359
lradius 107.457
lwrist 27.99
lhand -35.2692 8.33018
lfingers 7.12502
lthumb -8.40455 38.143
rfemur 6.66682 6.46491 33.0575
rtibia 26.7151
rfoot 1.76377 -4.3337
rtoes -18.0762
lfemur -50.6243 4.67999 -13.6663
ltibia 95.8943
lfoot 4.32357 -2.30001
ltoes -13.8989
65
root -0.742169 17.9337 4.35329 7.8151 -1.57621 -8.5468
lowerback 15.8933 0.388896 9.23121
upperback 0.591649 2.319 1.596
thorax -8.01175 0.800578 -4.01681
lowerneck -6.33061 0.815769 0.127057
upperneck -7.24582 0.95022 -3.17109
head -1.16954 0.501822 -0.99195
rclavicle -9.98893e-015 -3.40419e-014
rhumerus -16.4775 16.6375 -77.0914
rradius 111.76
rwrist -9.84755
rhand -42.7325 51.002
rfingers 7.12502
rthumb -15.6008 21.6111
lclavicle -9.98893e-015 -3.40419e-014
lhumerus -58.6116 -11.3432 94.4003
lradius 107.731
lwrist 27.3913
lhand -35.0985 7.69312
lfingers 7.12502
lthumb -8.23981 37.5124
rfemur 9.57265 6.91814 32.9868
rtibia 22.9127
rfoot 7.43202 -4.50366
rtoes -12.5074
lfemur -51.2287 3.25102 -13.6666
ltibia 91.4387
lfoot 4.32948 -2.03874
ltoes -13.8622
66
root -0.696473 18.061 5.03077 6.8129 -4.00926 -8.28978
lowerback 15.4995 1.35391 8.94468
upperback 0.881284 3.44251 1.21556
thorax -7.31158 1.38906 -4.4767
lowerneck -5.52571 0.706401 0.0956974
upperneck -7.15658 0.809323 -3.00528
head -1.27737 0.436265 -0.940251
rclavicle 3.6477e-014 -1.49089e-016
rhumerus -17.6328 17.3007 -77.5418
rradius 112.711
rwrist -9.64452
rhand -37.7178 39.4331
rfingers 7.12502
rthumb -10.7671 9.72907
lclavicle 3.6477e-014 -1.49089e-016
lhumerus -59.7771 -10.7899 94.2506
lradius 108.245
lwrist 27.1001
lhand -35.921 7.87556
lfingers 7.12502
lthumb -9.03356 37.6621
rfemur 14.7285 9.57285 32.2746
rtibia 18.5189
rfoot 12.8473 -4.66171
rtoes -6.26266
lfemur -48.5749 4.5213 -13.959
ltibia 86.4995
lfoot 2.55626 -1.96051
ltoes -14.1192
67
root -0.665503 18.1632 5.69674 6.33497 -5.90704 -7.89949
lowerback 14.383 2.20662 8.57024
upperback 1.15408 4.34094 0.853278
thorax -6.26523 1.89529 -4.74872
lowerneck -4.91523 0.553801 0.154044
upperneck -7.21811 0.600336 -2.93937
head -1.4022 0.335026 -0.934551
rclavicle 1.26974e-014 -1.80894e-014
rhumerus -18.5568 18.0842 -77.9753
rradius 113.786
rwrist -9.68665
rhand -35.5525 35.225
rfingers 7.12502
rthumb -8.67802 5.42336
lclavicle 1.26974e-014 -1.80894e-014
lhumerus -60.4477 -10.3323 93.938
lradius 108.508
lwrist 27.0938
lhand -36.8975 7.99606
lfingers 7.12502
lthumb -9.97578 37.7397
rfemur 19.4975 11.824 31.6385
rtibia 13.3966
rfoot 18.7589 -5.29484
rtoes -0.0826964
lfemur -46.7148 5.47074 -14.2773
ltibia 81.6004
lfoot 0.846542 -2.25372
ltoes -13.8978
68
root -0.663951 18.2194 6.221 6.5958 -4.21314 -7.74785
lowerback 13.9139 1.79197 8.77763
upperback 1.01196 3.7812 0.741888
thorax -6.21445 1.61556 -4.86402
lowerneck -5.23981 0.490262 0.147746
upperneck -7.05834 0.528643 -2.79921
head -1.29859 0.294079 -0.886884
rclavicle 1.64246e-014 2.13694e-014
rhumerus -18.9274 19.1434 -78.3261
rradius 114.544
rwrist -8.87162
rhand -35.9986 34.013
rfingers 7.12502
rthumb -9.10848 4.22964
lclavicle 1.64246e-014 2.13694e-014
lhumerus -60.6067 -9.83841 93.6109
lradius 108.687
lwrist 26.7667
lhand -37.1273 6.68989
lfingers 7.12502
lthumb -10.1975 36.4227
rfemur 23.6003 10.6654 31.7538
rtibia 6.61471
rfoot 26.4674 -6.35612
rtoes 5.98497
lfemur -47.272 3.3283 -14.039
ltibia 76.8407
lfoot 0.56501 -2.80098
ltoes -13.4197
